<svg xmlns="http://www.w3.org/2000/svg" xmlns:xlink="http://www.w3.org/1999/xlink" viewBox="0 0 2409.32 426.146"><defs><filter id="b" x="0" y="0" width="427.47" height="426.146" filterUnits="userSpaceOnUse" color-interpolation-filters="sRGB"><feColorMatrix values="-1 0 0 0 1 0 -1 0 0 1 0 0 -1 0 1 0 0 0 1 0" result="invert"/><feFlood flood-color="#fff" result="bg"/><feBlend in="invert" in2="bg"/></filter><mask id="a" x="0" y="0" width="427.47" height="426.146" maskUnits="userSpaceOnUse"><path d="M167.87,51.85a32.628,32.628,0,0,0-5.17,17.626c0,8.538,3.272,19.151,13.623,31.392,12.5,14.747,24.09,28.026,34.778,39.967-12.783,11.54-26.838,22.509-39.8,32.6-9.688,7.537-18.963,14.774-26.52,21.349-13.558-11.447-27.342-21.349-41.3-28.746-15.654-8.314-35.768-7.538-51.254,1.954-13.906,8.547-21.7,22.621-21.423,38.658.335,19.385,6.48,31.608,18.216,36.283,27.174,10.809,75.483-22.854,91.09-38.743h0c1.43-1.43,3.047-2.926,4.74-4.432,29.4,25.286,57.725,57.809,83.788,88-23.892,22.593-43.493,47.925-43.875,75.352-.01.252-.01.477-.01.71,0,16.468,8.182,27.932,23.125,32.374,21.564,6.4,50.815-4.376,62.626-23.05a36.566,36.566,0,0,0,5.714-19.553c0-9.81-3.929-22.041-16.534-36.03-8.173-9.08-16.756-19.021-25.838-29.541,12.223-11.315,25.455-21.975,37.676-31.813,10.726-8.631,20.928-16.851,29.27-24.528,12.942,11.259,24.565,20.274,34.692,26.876,21.191,13.792,35.985,17.355,45.224,10.884,11.473-7.977,20.15-23.256,22.639-39.855,2.253-14.971-.823-29.148-8.425-38.845-7.949-10.165-16.8-15.485-26.278-15.822-19.964-.692-39.06,20.451-54.414,37.462-3.936,4.356-7.66,8.509-11.062,11.866-.786.8-1.619,1.57-2.45,2.384-24.034-21.152-52.461-49.888-84.369-85.5C239.228,120.019,257.5,96.959,257.5,73.236c0-.562-.01-1.114-.027-1.675-.75-20.46-11.719-35.058-30.1-40.042C205.48,25.573,178.784,34.69,167.87,51.85Zm11.324,46.587c-8.454-9.969-12.726-19.909-12.726-29.1a28.441,28.441,0,0,1,4.564-15.476C181.13,38,205.966,29.594,226.4,35.139c9.8,2.674,26.388,10.959,27.315,36.563.027.514.036,1.029.036,1.534,0,22.376-17.682,44.6-39.9,65.1Q197.129,119.6,179.194,98.437Zm-128.766,141c-10.211-4.067-15.541-15.111-15.868-32.86-.253-14.662,6.891-27.557,19.638-35.385,14.371-8.808,33.028-9.528,47.531-1.833,13.54,7.182,26.989,16.814,40.229,27.951-1.581,1.431-3.1,2.834-4.479,4.209,0,0,.655.653,1.319,1.328-.673-.656-1.348-1.319-1.348-1.319C122.872,216.374,75.584,249.469,50.428,239.434ZM173.6,176.4c13.016-10.156,27.136-21.143,40-32.757,26.033,28.979,46.4,49.711,60.39,63.289,8.426,8.172,16.4,15.56,23.977,22.246-8.23,7.528-18.254,15.608-28.8,24.1-12.249,9.866-25.491,20.535-37.778,31.9-26.016-30.111-54.276-62.541-83.712-87.929C155.069,190.827,164.14,183.767,173.6,176.4Zm35.347,216.19c-13.2-3.918-20.441-14.138-20.441-28.791,0-.216,0-.422.008-.636.365-26.062,19.347-50.553,42.6-72.575,9.052,10.482,17.628,20.385,25.791,29.465,10.325,11.446,15.561,22.958,15.561,33.7a32.012,32.012,0,0,1-5.143,17.384C256.342,388.549,229.055,398.563,208.95,392.588Zm96.86-165.675c3.48-3.45,7.238-7.6,11.221-12.035,14.822-16.411,33.271-36.862,51.489-36.217,8.443.3,16.112,5,23.453,14.373,6.974,8.912,9.762,22.031,7.667,36-2.337,15.6-10.417,29.9-21.069,37.33-11.819,8.248-37.994-5.182-75.024-37.265C304.313,228.352,305.091,227.624,305.81,226.913Z" fill="#fff" filter="url(#b)"/></mask></defs><path d="M758.363,73.048H793.82V344.682H758.363Z" fill="#231f20"/><path d="M920.359,165.519q40.839,0,67.867,26.338t27.032,66.163q0,38.655-27.416,64.215T918.8,347.786q-40.242,0-67.278-25.94t-27.035-64.8q0-39.246,27.325-65.38T920.359,165.519Zm-1.844,31.943q-25.481,0-41.812,16.705t-16.335,42.554q0,25.647,16.726,41.876t42.976,16.218q26.061,0,42.7-16.417,16.615-16.413,16.621-42.058,0-25.473-17.316-42.173T918.515,197.462Z" fill="#231f20"/><path d="M1042.915,73.048h35.457V178.434q22.918-16.638,48.949-16.643,33.99,0,55.559,25.687t21.563,65.954q0,43.2-25.757,68.775t-68.907,25.579a192.514,192.514,0,0,1-36.447-3.691q-19.148-3.686-30.417-9.328Zm35.457,139.2v97.11a127.058,127.058,0,0,0,37.047,5.452q23.479,0,38.318-16.754t14.834-43.071q0-26.7-13.871-43.463t-36.181-16.762Q1098.739,194.765,1078.372,212.253Z" fill="#231f20"/><path d="M1346.067,237.205v75.95q0,9.131,6.184,9.129,6.394,0,19.935-9.333v21.437q-12.034,7.784-19.329,10.588a41.971,41.971,0,0,1-15.239,2.81q-22.722,0-26.8-17.87-22.515,17.454-47.95,17.455-18.634,0-31.065-12.328t-12.428-30.975q0-16.89,12.137-30.191t34.469-21.069l45.252-15.54v-9.537q0-32.346-32.221-32.345-28.952,0-56.319,29.858V186.653q20.59-24.234,59.26-24.238,28.945,0,46.439,15.15a47.635,47.635,0,0,1,10.489,12.921,46.425,46.425,0,0,1,5.92,16.12Q1346.065,214.675,1346.067,237.205Zm-34.839,72.11V256.34l-23.654,9.13q-18.021,7.177-25.5,14.464a24.282,24.282,0,0,0-7.462,18.139q0,11.07,7.081,18.062t18.318,6.982Q1296.885,323.117,1311.228,309.315Z" fill="#231f20"/><path d="M1394.458,73.048h35.456V344.682h-35.456Z" fill="#231f20"/><path d="M621.29,203.667H730.913v8.765q0,29.874-7.049,52.9-6.871,21.3-23.2,39.842-36.942,41.571-93.974,41.57-55.667,0-95.362-40.192-39.715-40.384-39.708-96.892,0-57.71,40.4-97.907Q552.4,71.375,610.3,71.375A134.8,134.8,0,0,1,668.372,84.07q25.773,12.689,50.686,41.2L690.53,152.586q-32.649-43.467-79.549-43.471-42.087,0-70.616,29.017-28.512,28.521-28.512,71.468,0,44.289,31.777,72.984,29.718,26.636,64.43,26.625,29.558,0,53.094-19.926Q684.683,269.2,687.441,241.2H621.29Z" fill="#231f20"/><path d="M1756.641,171.579q37.107,0,61.667,23.963,24.577,23.957,24.563,60.218,0,35.195-24.907,58.448-24.923,23.254-62.736,23.257-36.579,0-61.137-23.611t-24.562-58.983q0-35.722,24.815-59.5Q1719.18,171.588,1756.641,171.579Zm-1.778,29.033q-23.138,0-37.96,15.206t-14.82,38.714q0,23.342,15.18,38.106t39.008,14.756q23.666,0,38.745-14.932,15.088-14.957,15.1-38.284,0-23.149-15.718-38.36T1754.863,200.612Z" fill="#231f20"/><path d="M1687.462,188.184c-18.5,17.722-27.891,40.168-27.891,66.687,0,26.286,9.293,48.546,27.623,66.157,18.208,17.511,41.1,26.385,68.034,26.385,27.692,0,51.09-8.728,69.517-25.932,18.634-17.385,28.081-39.5,28.081-65.721,0-26.85-9.281-49.509-27.571-67.35-18.218-17.772-41.305-26.787-68.614-26.787C1729.136,161.623,1705.854,170.563,1687.462,188.184Zm13.518,118.5c-14.463-13.91-21.5-30.855-21.5-51.81,0-21.181,7.111-38.29,21.75-52.318,14.766-14.143,32.892-21.019,55.408-21.019,22.246,0,40.139,6.912,54.712,21.125,14.516,14.149,21.57,31.524,21.57,53.1,0,20.772-7.118,37.506-21.755,51.169-14.84,13.844-33.142,20.573-55.94,20.573C1733.312,327.5,1715.569,320.7,1700.98,306.681Z" fill="#231f20"/><path d="M1709.777,208.866c-11.706,12.015-17.649,27.379-17.649,45.666,0,18.272,6.121,33.495,18.194,45.236,12,11.658,27.459,17.582,45.949,17.582,18.394,0,33.8-6,45.746-17.814,11.976-11.869,18.05-27.126,18.05-45.358,0-18.165-6.306-33.474-18.747-45.517-12.348-11.946-27.984-18.006-46.457-18.006C1736.723,190.655,1721.571,196.785,1709.777,208.866ZM1724.2,285.5c-8.191-7.965-12.172-18.089-12.172-30.967,0-13.1,3.925-23.489,11.994-31.772,8.008-8.212,18.1-12.2,30.837-12.2,13.313,0,23.989,4.059,32.614,12.412,8.534,8.252,12.677,18.461,12.677,31.206,0,12.907-3.968,23.111-12.142,31.209-8.2,8.106-18.582,12.051-31.741,12.051C1742.948,297.438,1732.467,293.533,1724.2,285.5Z" fill="#231f20"/><path d="M1896.825,103.564a18.808,18.808,0,0,1,13.591,5.479,17.919,17.919,0,0,1,5.658,13.415,18.313,18.313,0,0,1-5.658,13.408,18.565,18.565,0,0,1-13.591,5.642,17.845,17.845,0,0,1-13.06-5.727,18.455,18.455,0,0,1-5.64-13.323,18.237,18.237,0,0,1,5.64-13.154A17.81,17.81,0,0,1,1896.825,103.564ZM1881.025,172h32.14V334.557h-32.14Z" fill="#231f20"/><path d="M1876.686,102.308a28.308,28.308,0,0,0-.02,40.449,27.89,27.89,0,0,0,20.159,8.712,29.239,29.239,0,0,0,29.195-29.011,28,28,0,0,0-8.669-20.56,28.924,28.924,0,0,0-20.526-8.289A27.877,27.877,0,0,0,1876.686,102.308Zm14.161,26.484a8.583,8.583,0,0,1-2.77-6.334c0-1.559.321-3.664,2.783-6.177,2.416-2.444,4.456-2.761,5.965-2.761a8.933,8.933,0,0,1,6.672,2.669,8.031,8.031,0,0,1,2.615,6.269,8.459,8.459,0,0,1-2.734,6.382,8.67,8.67,0,0,1-6.553,2.72C1895.316,131.56,1893.276,131.241,1890.847,128.792Z" fill="#231f20"/><path d="M1871.068,162.039V344.512h52.045V162.039Zm32.147,19.91V324.606h-12.241V181.949Z" fill="#231f20"/><path d="M2083.5,296.613v31.829q-24.189,9.022-47.317,9.023-38.151,0-60.833-22.65-22.7-22.655-22.693-60.685,0-38.394,22.075-61.929t58.1-23.525a97.174,97.174,0,0,1,22.51,2.387q9.962,2.394,24.625,8.931v34.3q-24.351-15.556-45.173-15.554-21.687,0-35.632,15.315-13.948,15.292-13.956,39.016,0,24.953,15.1,39.629,15.064,14.712,40.669,14.694Q2059.5,307.394,2083.5,296.613Z" fill="#231f20"/><path d="M1967.473,185.388c-16.437,17.539-24.768,40.67-24.768,68.742,0,27.98,8.614,50.77,25.617,67.723,16.984,16.959,39.812,25.56,67.859,25.56a145.489,145.489,0,0,0,50.794-9.65l6.473-2.41V281.228l-14.028,6.305c-14.632,6.581-27.574,9.9-38.445,9.9-14.5,0-25.531-3.877-33.732-11.861-8.133-7.908-12.069-18.541-12.069-32.506,0-13.374,3.7-23.942,11.339-32.309,7.391-8.127,16.638-12.067,28.283-12.067,11.884,0,25.289,4.7,39.82,13.988l15.3,9.779V173.541l-5.887-2.626c-10.28-4.6-19.152-7.8-26.383-9.532a107.312,107.312,0,0,0-24.817-2.662C2006.071,158.721,1984.087,167.694,1967.473,185.388Zm14.9,122.387c-13.293-13.282-19.76-30.826-19.76-53.645,0-23.173,6.334-41.2,19.375-55.123,12.871-13.711,29.505-20.382,50.843-20.382a86.914,86.914,0,0,1,20.183,2.125,122.859,122.859,0,0,1,17,5.924v10.879c-12.251-5.725-24.068-8.768-35.224-8.768-17.32,0-31.793,6.248-43,18.568-10.973,12.033-16.538,27.418-16.538,45.718,0,19.345,6.094,35.081,18.1,46.768,11.928,11.615,27.946,17.511,47.619,17.511,9.8,0,20.913-2.712,32.568-6.688V320.95c-12.7,4.075-25.274,6.552-37.362,6.552C2013.283,327.5,1995.689,321.056,1982.376,307.775Z" fill="#231f20"/><path d="M2260.446,255.972H2146.2q1.227,23.376,15.615,37.2,14.385,13.8,37.151,13.809,31.759,0,58.583-19.7V318.69a107.112,107.112,0,0,1-29.392,14.119q-14.552,4.231-34.15,4.238-26.83,0-43.417-11.142a80.992,80.992,0,0,1-26.553-29.977q-9.975-18.829-9.976-43.6,0-37.133,21.012-60.4,21.014-23.245,54.57-23.257,32.3,0,51.563,22.622t19.243,60.608Zm-113.629-19.289h81.9q-1.244-19.212-11.494-29.612t-27.6-10.4q-17.345,0-28.4,10.4T2146.817,236.683Z" fill="#231f20"/><path d="M2127.682,185.255c-15.644,17.332-23.579,39.9-23.579,67.075,0,18.065,3.749,34.306,11.126,48.265a91.231,91.231,0,0,0,29.818,33.572C2157.725,342.683,2174.2,347,2194,347c13.929,0,26.364-1.553,36.932-4.623a117.845,117.845,0,0,0,32.135-15.407l4.424-2.953V267.622l-15.842,11.637c-16.275,11.951-33.519,17.763-52.69,17.763-12.627,0-22.52-3.6-30.251-11.037a39.51,39.51,0,0,1-11.035-20.056H2270.4V251.906c0-27.641-7.269-50.207-21.622-67.061-14.759-17.334-34.653-26.124-59.138-26.124C2164.44,158.721,2143.6,167.652,2127.682,185.255Zm28.454,132.391a71.4,71.4,0,0,1-23.3-26.37c-5.853-11.051-8.818-24.149-8.818-38.946,0-22.41,6.028-39.986,18.441-53.731,12.153-13.437,27.587-19.974,47.186-19.974,18.639,0,33.027,6.255,43.987,19.126,10.173,11.96,15.547,28.312,16.487,48.266H2135.7l.551,10.478c.96,18.123,7.244,32.882,18.657,43.853,11.471,11.007,26.288,16.584,44.051,16.584a105.113,105.113,0,0,0,48.631-11.854v7.873a95.3,95.3,0,0,1-22.216,10.308c-8.759,2.542-19.32,3.834-31.374,3.834C2178.214,327.093,2165.478,323.908,2156.136,317.646Z" fill="#231f20"/><path d="M2154.415,199.812c-8.938,8.41-14.793,20.236-17.4,35.155l-2.04,11.671h104.363l-.688-10.588c-.98-15.218-5.8-27.321-14.331-35.969-8.756-8.867-20.428-13.374-34.7-13.374C2175.505,186.707,2163.659,191.121,2154.415,199.812Zm13.639,14.512c5.5-5.183,12.568-7.705,21.571-7.705,8.868,0,15.575,2.428,20.523,7.442,3.087,3.133,5.095,7.6,6.556,12.673h-56.528C2162.215,221.793,2164.71,217.464,2168.054,214.324Z" fill="#231f20"/><path d="M2289.263,322.961V288.324a146.681,146.681,0,0,0,27.811,15.433q14.221,5.922,23.943,5.918a29.925,29.925,0,0,0,17.3-4.95q7.247-4.944,7.244-11.854a15.966,15.966,0,0,0-4.679-11.763q-4.692-4.694-20.229-13.537-31.118-17.334-40.734-29.629t-9.621-26.811q0-18.759,14.594-30.607t37.585-11.848q23.889,0,49.006,13.424v31.777q-28.682-17.207-46.91-17.205-9.384,0-15.139,3.981a12.235,12.235,0,0,0-5.754,10.528q0,5.667,5.2,10.8t18.278,12.377l11.487,6.547q40.7,22.978,40.719,50.934,0,19.983-15.646,32.8t-40.2,12.822a98.053,98.053,0,0,1-25.808-3.1Q2306.4,331.284,2289.263,322.961Z" fill="#231f20"/><path d="M2298.617,172.8c-12.128,9.855-18.265,22.755-18.265,38.331,0,11.919,3.948,23,11.743,32.945,7.306,9.34,21.6,19.866,43.715,32.2,12.427,7.067,16.639,10.471,18.037,11.87a6.022,6.022,0,0,1,1.771,4.73c0,.409,0,1.651-2.908,3.636a20.05,20.05,0,0,1-11.693,3.213c-5.133,0-11.9-1.731-20.116-5.156a137.156,137.156,0,0,1-25.925-14.4l-15.668-10.986V329.2l5.614,2.726c12.094,5.86,21.965,9.806,30.169,12.044a108.611,108.611,0,0,0,28.435,3.447c18.659,0,34.311-5.076,46.512-15.075,12.785-10.492,19.282-24.118,19.282-40.5,0-22.4-15.4-42.454-45.774-59.6l-11.457-6.531c-9.935-5.515-14.291-8.911-16.213-10.8-1.015-1.015-2.239-2.47-2.239-3.727,0-.715,0-1.329,1.464-2.337,2.127-1.484,5.316-2.225,9.476-2.225,10.273,0,24.327,5.317,41.788,15.794l15.078,9.046V176.126l-5.268-2.812c-18.14-9.687-36.2-14.593-53.694-14.593C2324.878,158.721,2310.12,163.459,2298.617,172.8Zm65.319,140.136c9.575-6.532,11.587-14.517,11.587-20.065a26,26,0,0,0-7.592-18.795c-3.862-3.855-10.959-8.672-22.36-15.153-24.323-13.556-33.98-22.233-37.8-27.125-5.063-6.448-7.52-13.2-7.52-20.667,0-9.553,3.466-16.833,10.92-22.884,7.973-6.466,18.213-9.622,31.312-9.622,12.529,0,25.679,3.756,39.057,10.1V197.1c-14.211-6.976-26.407-10.4-36.961-10.4-8.29,0-15.3,1.943-20.811,5.765a22.3,22.3,0,0,0-10.038,18.709c0,4.49,1.429,11.246,8.173,17.9,4.126,4.067,10.819,8.647,20.436,13.987l11.394,6.488c23.687,13.381,35.686,27.6,35.686,42.286,0,10.273-3.926,18.483-12,25.1-8.674,7.118-19.759,10.562-33.892,10.562a88.941,88.941,0,0,1-23.191-2.732c-5.6-1.532-12.909-4.491-21.115-8.249V306.142a142.431,142.431,0,0,0,14.049,6.8c10.789,4.5,19.868,6.684,27.748,6.684A39.763,39.763,0,0,0,2363.936,312.936Z" fill="#231f20"/><path d="M1653.445,81.967h36.139l-106.6,253.67h-8.464L1465.964,81.967h36.392l75.9,177.407Z" fill="#231f20"/><path d="M1647.316,72.718s-13.935,32.881-29.555,69.707c-15.6,36.828-32.874,77.582-39.544,93.325-6.725-15.717-24.171-56.483-39.919-93.317-15.771-36.828-29.835-69.715-29.835-69.715h-56.52l58.237,136.09L1568.4,344.892h20.733l57.184-136.084L1703.5,72.718h-56.188Zm28.333,18.5c-4.659,11.087-27.034,64.336-49.175,117.035s-44.045,104.829-47.774,113.683c-3.762-8.82-26.058-60.912-48.6-113.618-22.543-52.678-45.341-105.963-50.092-117.1h16.245c2.246,5.269,22.764,53.209,42.717,99.844S1578.3,283,1578.3,283s19.2-45.3,38.95-91.927,40.063-94.569,42.311-99.859h16.088Z" fill="#231f20"/><g mask="url(#a)"><path d="M199.224.146c-27.043,1.936-52.965,22.163-63.036,49.178a62.926,62.926,0,0,0-4.1,22.06,55.76,55.76,0,0,0,16.625,39.873c2.2,2.2,9.184,9.221,18.873,18.936-10.559,10.409-23.491,23.182-33.928,33.5-6.209-5.948-12.867-12.363-12.867-12.363-17.934-17.3-44.492-23.21-69.291-15.411C25.517,144.108,6.683,165.981,1.1,194.446a57.046,57.046,0,0,0,7.1,40.64,70.416,70.416,0,0,0,26.819,25.37,83.117,83.117,0,0,0,42.96,10.221c17.346-.721,32.823-7.041,44.754-18.272.366-.347.711-.674,11.353-11.5,17.954,17.936,35.7,35.7,54.03,54.023-5.067,4.862-10.677,10.426-16.475,16.58a66.413,66.413,0,0,0-18.161,40.143c-.168,1.955-.243,3.882-.243,5.836a69.124,69.124,0,0,0,8.847,33.693c14.663,26.341,43.034,39.5,72.294,33.561A77.972,77.972,0,0,0,292.437,373a70.115,70.115,0,0,0,3.685-22.189,61.478,61.478,0,0,0-15.374-41.156c-4.731-5.339-9.258-10.118-13.391-14.335,13.242-13.129,19.844-19.7,32.768-32.524,7.2,6.968,14.97,14.467,20.871,19.974,15.8,14.785,37.939,18.563,59.2,10.1,26.4-10.492,45.355-36.891,47.14-65.664.934-15-3.112-30.831-11.389-44.624-8.116-13.541-19.769-24.266-32.813-30.2-21.957-10.006-45.42-5.779-62.739,11.286-6.395,6.3-14.037,14.177-20.918,21.368-14.353-14.438-34.824-34.983-54.4-54.648,6.246-6.369,12.643-13.035,16.944-17.862C272.67,100.6,278.121,86.4,278.121,71.833a62.622,62.622,0,0,0-6.659-27.727C258.156,17.044,227.091-1.864,199.224.146ZM187.46,72.524a2.472,2.472,0,0,1-.541-.682,1.108,1.108,0,0,1-.057-.412c0-1.057.543-3.609,2.711-6.882,3.835-5.76,9.9-9.482,13.579-9.763,4.759-.336,15.242,5.583,19.132,13.5a8.066,8.066,0,0,1,1.048,3.479c0,1.393-.691,2.609-2.2,4.283-3.6,4.04-9.145,9.819-14.718,15.494C196.7,81.773,189.667,74.723,187.46,72.524ZM61.49,212.5c-2.524-1.412-7.153-4.761-6.61-7.52,2.187-11.165,8.312-15.3,13.073-16.776,5.46-1.73,11.408-.692,14.775,2.554,0,0,6.462,6.218,12.231,11.773-4.751,4.824-8.565,8.705-9.856,10.023C79.6,217.628,68.813,216.533,61.49,212.5Zm144.749-43.475c19.824,19.9,40.565,40.753,54.947,55.191-13.259,13.157-20.162,20.012-33.252,33.019-17.974-17.964-36.882-36.862-55.154-55.154Zm152.64,33.655a8.072,8.072,0,0,1,.831-.73c4.143.936,12.96,10.718,12.96,20.8,0,.355,0,.7-.027,1.048a22.342,22.342,0,0,1-7.789,15.036,14.659,14.659,0,0,1-6.723,3.647c-5.536-5.2-12.859-12.241-19.714-18.889C345.187,216.505,352.752,208.734,358.879,202.684ZM209.96,364.525a14.911,14.911,0,0,1-1.944-7.069,11.894,11.894,0,0,1,3.478-8.342c5.723-6.05,11.221-11.482,16.065-16.093,3.713,3.742,7.835,8.089,12.205,13.008a6.956,6.956,0,0,1,1.578,4.741,16.191,16.191,0,0,1-.878,4.891c-2.132,6.35-8.21,13.56-17.038,15.373C215.729,372.6,211.7,367.62,209.96,364.525Z" fill="#269926"/></g></svg>