<?xml version="1.0" standalone="no"?><!-- Generator: Gravit.io --><svg xmlns="http://www.w3.org/2000/svg" xmlns:xlink="http://www.w3.org/1999/xlink" style="isolation:isolate" viewBox="0 0 330 43" width="330" height="43"><defs><clipPath id="_clipPath_93GXJrdLWeU9NN9vWxzXPfSUgLwN62bX"><rect width="330" height="43"/></clipPath></defs><g clip-path="url(#_clipPath_93GXJrdLWeU9NN9vWxzXPfSUgLwN62bX)"><path d=" M 79.794 41.407 C 82.581 41.109 83.776 40.014 84.572 37.227 C 85.07 35.336 85.667 31.454 86.364 25.681 C 87.06 20.007 87.259 16.921 87.259 16.125 C 87.259 13.437 85.766 12.144 82.382 11.745 L 82.382 10.949 L 92.236 10.949 L 92.236 11.646 C 91.938 11.944 91.739 12.243 91.739 12.542 C 91.739 13.935 92.734 16.225 94.327 19.708 L 101.294 35.236 L 109.854 16.225 C 110.252 15.329 110.85 14.333 110.85 12.94 C 110.85 12.442 110.75 12.044 110.452 11.646 L 110.452 10.949 L 120.604 10.949 L 120.604 11.745 C 117.32 11.845 115.926 13.438 115.926 17.12 C 115.926 17.519 115.926 18.514 116.026 20.106 L 116.921 34.539 C 117.22 39.317 117.519 40.81 122.097 41.308 L 122.097 42.104 C 120.007 42.104 117.718 42.005 115.13 42.005 C 112.641 42.005 109.954 42.005 106.968 42.104 L 106.968 41.308 C 111.447 40.81 112.641 39.616 112.641 36.132 L 112.641 34.838 L 111.546 16.225 L 104.678 31.354 C 103.384 34.141 101.792 37.824 99.901 42.303 L 99.502 42.303 C 98.109 39.118 97.213 37.028 96.815 36.032 L 88.553 17.419 L 87.956 23.391 C 87.16 30.558 87.06 34.838 87.06 36.331 C 87.06 39.815 88.155 40.81 92.634 41.407 L 92.634 42.204 C 90.246 42.204 87.956 42.104 85.766 42.104 C 83.577 42.104 81.685 42.104 79.794 42.204 L 79.794 41.407 L 79.794 41.407 Z " fill="rgb(0,0,0)"/><path d=" M 144.991 34.241 C 144.394 36.829 143.697 39.118 142.801 41.109 C 140.293 42.221 137.581 42.797 134.838 42.801 C 130.857 42.801 127.273 41.606 124.685 39.616 C 121.401 37.028 119.808 33.644 119.808 29.164 C 119.808 25.083 121.5 21.4 124.685 18.812 C 127.373 16.623 130.956 15.428 135.137 15.428 C 138.222 15.428 141.109 16.125 143.697 17.319 L 143.697 23.789 L 143.1 23.789 C 142.303 18.912 139.516 16.424 134.938 16.424 C 128.667 16.424 124.188 21.5 124.188 28.965 C 124.188 32.648 125.482 35.933 127.871 38.421 C 129.861 40.611 132.748 41.806 135.734 41.806 C 139.715 41.806 142.204 39.317 144.493 34.141 L 144.991 34.241 L 144.991 34.241 Z  M 176.046 32.748 C 175.35 35.734 174.553 38.521 173.458 41.009 C 170.572 42.303 167.287 43 163.903 43 C 159.125 43 154.945 41.606 151.859 39.218 C 147.977 36.231 146.086 32.15 146.086 26.775 C 146.086 21.898 148.176 17.618 151.859 14.433 C 155.044 11.845 159.324 10.352 164.301 10.352 C 167.984 10.352 171.368 11.148 174.553 12.641 L 174.553 20.306 L 173.757 20.306 C 172.861 14.532 169.477 11.546 164.102 11.546 C 156.736 11.546 151.361 17.519 151.361 26.477 C 151.361 30.856 152.854 34.738 155.741 37.725 C 158.13 40.313 161.514 41.706 165.097 41.706 C 169.776 41.706 172.861 38.819 175.449 32.549 L 176.046 32.748 L 176.046 32.748 Z " fill="rgb(0,0,0)"/><path d=" M 175.947 41.507 C 180.426 41.208 180.824 39.715 180.824 35.137 L 180.824 22.396 C 180.824 18.315 180.327 17.021 175.947 16.623 L 175.947 15.926 L 189.086 15.926 L 189.086 16.623 C 184.905 16.921 184.208 18.315 184.208 22.396 L 184.208 35.137 C 184.208 37.625 184.208 39.317 184.706 40.313 C 185.104 41.009 186.498 41.109 189.185 41.109 C 191.674 41.109 193.465 41.109 195.058 40.113 C 196.651 39.118 197.945 37.326 199.239 34.838 L 199.736 35.037 L 197.546 42.204 C 194.361 42.204 190.479 42.104 186.1 42.104 L 175.947 42.104 L 175.947 41.507 Z  M 198.442 41.507 C 199.935 41.208 200.931 40.91 201.727 40.014 C 202.623 39.019 204.016 35.137 206.505 28.468 L 210.785 17.12 L 210.586 16.324 C 211.681 16.025 212.377 15.329 213.273 14.234 L 221.535 36.63 C 222.729 39.715 223.625 41.208 226.512 41.308 L 226.512 41.905 C 224.72 41.905 222.829 41.806 220.938 41.806 C 219.146 41.806 217.255 41.806 215.364 41.905 L 215.364 41.308 C 217.354 41.109 218.35 40.213 218.35 39.118 C 218.35 38.521 218.151 37.625 217.752 36.53 L 215.762 30.956 L 206.903 30.956 L 206.206 33.146 C 205.31 35.933 204.813 37.824 204.813 38.919 C 204.813 40.512 206.206 41.208 209.093 41.308 L 209.093 41.905 C 207.202 41.905 205.31 41.806 203.519 41.806 C 201.827 41.806 200.134 41.806 198.542 41.905 L 198.542 41.507 L 198.442 41.507 Z  M 215.065 29.662 L 211.183 19.211 L 207.401 29.662 L 215.065 29.662 L 215.065 29.662 Z  M 237.262 40.014 C 238.058 40.81 239.452 41.208 241.343 41.507 L 241.343 42.104 C 239.053 42.104 236.764 42.005 234.475 42.005 C 232.185 42.005 229.896 42.005 227.507 42.104 L 227.507 41.507 C 229.398 41.208 230.792 40.711 231.688 40.014 C 232.583 39.118 232.683 37.326 232.683 34.34 L 232.683 17.319 L 230.095 17.319 C 225.616 17.319 223.625 18.414 222.63 22.197 L 222.033 22.097 L 222.729 14.831 L 223.227 14.831 L 224.322 16.025 L 244.827 16.025 L 246.021 14.831 L 246.32 14.831 L 246.917 22.197 L 246.32 22.296 C 245.424 18.613 243.333 17.319 239.153 17.319 L 236.366 17.319 L 236.366 34.34 C 236.266 37.326 236.366 39.118 237.262 40.014 Z  M 271.702 34.241 C 271.104 36.829 270.408 39.118 269.512 41.109 C 267.004 42.221 264.292 42.797 261.549 42.801 C 257.567 42.801 254.083 41.606 251.396 39.616 C 248.111 37.028 246.519 33.644 246.519 29.164 C 246.519 25.083 248.211 21.4 251.396 18.812 C 254.083 16.623 257.667 15.428 261.847 15.428 C 264.933 15.428 267.82 16.125 270.408 17.319 L 270.408 23.789 L 269.81 23.789 C 269.014 18.912 266.227 16.424 261.648 16.424 C 255.377 16.424 250.898 21.5 250.898 28.965 C 250.898 32.648 252.192 35.933 254.581 38.421 C 256.572 40.611 259.458 41.806 262.445 41.806 C 266.426 41.806 268.915 39.317 271.204 34.141 L 271.702 34.241 Z " fill="rgb(0,0,0)"/><path d=" M 271.502 16.722 L 271.502 16.025 L 285.04 16.025 L 285.04 16.722 C 280.56 17.021 279.963 18.215 279.963 22.396 L 279.963 27.771 L 295.192 27.771 L 295.192 22.396 C 295.192 18.315 294.695 17.021 290.116 16.722 L 290.116 16.025 L 303.653 16.025 L 303.653 16.722 C 299.373 17.021 298.776 18.315 298.776 22.396 L 298.776 35.833 C 298.776 39.914 299.373 41.308 303.653 41.507 L 303.653 42.104 C 301.563 42.104 299.373 42.005 297.183 42.005 C 294.894 42.005 292.604 42.005 290.116 42.104 L 290.116 41.507 C 294.695 41.208 295.192 39.914 295.192 35.833 L 295.192 29.264 L 279.963 29.264 L 279.963 35.833 C 279.963 40.014 280.461 41.308 285.04 41.507 L 285.04 42.104 C 282.651 42.104 280.262 42.005 278.072 42.005 C 275.783 42.005 273.593 42.005 271.502 42.104 L 271.502 41.507 C 275.982 41.208 276.38 39.815 276.38 35.833 L 276.38 22.396 C 276.479 18.315 275.982 16.921 271.502 16.722 Z  M 309.924 41.507 C 313.408 41.208 314.801 39.815 314.801 36.63 L 314.801 33.942 L 314.801 33.146 C 314.801 32.25 314.702 31.056 313.806 29.065 L 310.322 21.301 C 308.928 18.315 307.634 16.822 304.748 16.523 L 304.748 15.826 L 315.299 15.826 L 315.299 16.523 C 313.706 16.623 312.81 17.12 312.81 17.917 C 312.81 18.414 313.009 19.211 313.408 20.106 L 317.489 29.065 C 320.674 23.491 322.565 20.106 322.565 18.414 C 322.565 17.22 321.57 16.523 319.778 16.523 L 319.579 16.523 L 319.579 15.826 L 329.433 15.826 L 329.433 16.523 L 329.134 16.523 C 325.252 16.523 324.058 19.31 321.271 24.287 C 319.877 26.875 318.982 28.567 318.683 29.363 C 318.384 30.16 318.285 30.956 318.285 31.752 L 318.285 36.829 C 318.285 39.914 319.678 41.208 323.461 41.606 L 323.461 42.204 C 321.271 42.204 318.982 42.104 316.692 42.104 C 314.403 42.104 312.114 42.104 309.824 42.204 L 309.824 41.507 L 309.924 41.507 Z " fill="rgb(0,0,0)"/><g><path d=" M 0.463 42.104 L 29.329 0 L 39.88 8.859 L 17.185 42.104 L 0.463 42.104 Z  M 19.276 42.204 L 40.776 9.854 L 50.928 18.215 L 34.704 42.204 L 19.276 42.204 Z  M 75.912 42.204 L 60.683 29.164 L 51.625 42.204 L 36.595 42.204 L 51.824 19.111 L 78.6 42.204 L 75.912 42.204 Z " fill="rgb(0,92,165)"/></g></g></svg>