<svg version="1.2" xmlns="http://www.w3.org/2000/svg" viewBox="0 0 1200 754" width="1200" height="754">
	<style>
		.s0 { fill: #011e4e } 
	</style>
	<path id="Path 0" fill-rule="evenodd" class="s0" d="m696.71 187.02c2.54 0.01 5.28 1.02 8.29 3.04 2.47 1.66 6.08 3.47 8 4.03 1.92 0.55 8.9 1.41 15.5 1.92 6.6 0.51 63.52 0.93 126.5 0.93 62.97 0 120.12-0.41 127-0.92 6.87-0.51 14.52-1.65 17-2.54 2.47-0.9 5.74-2.72 7.25-4.05q2.75-2.43 6.5-2.47c2.06-0.03 4.25 0.53 4.85 1.25 0.61 0.71 2.08 6.01 3.27 11.79 1.19 5.77 4.36 21.3 7.05 34.5 2.69 13.2 4.7 24.45 4.47 25-0.23 0.55-2.22 2.01-4.41 3.25-2.19 1.24-4.54 2.25-5.23 2.25-0.69 0.01-2.09-2.36-3.11-5.25-1.02-2.89-3.29-8.4-5.04-12.25-1.75-3.85-5.19-9.18-7.64-11.85-2.45-2.66-5.81-5.68-7.46-6.7-1.65-1.02-5.7-2.79-9-3.95-3.3-1.15-10.28-2.76-15.5-3.57-7.1-1.1-18.74-1.47-46-1.45-20.08 0.01-38.08 0.44-40 0.95-1.92 0.52-4.17 1.71-5 2.66-1.11 1.27-1.56 4.7-1.73 13.31-0.13 6.38-0.98 42.2-1.89 79.6-1.09 44.79-1.45 82.17-1.06 109.5 0.33 22.82 1.07 47.12 1.64 54 0.57 6.87 1.52 16.55 2.12 21.5 0.6 4.95 1.78 12.15 2.63 16 0.84 3.85 2.33 8.58 3.29 10.5 1.13 2.25 3.5 4.45 6.63 6.17 2.68 1.47 8.47 3.58 12.87 4.68 4.4 1.11 12.95 2.71 19 3.55 6.05 0.85 11.31 1.89 11.69 2.32 0.37 0.43 0.37 3.56-0.69 13.13l-12-0.68c-6.6-0.37-39.45-0.63-73-0.58-42.54 0.06-66.52 0.51-97.46 2.91l-1.09-5.5c-0.6-3.02-0.83-6.06-0.52-6.75 0.31-0.69 1.58-1.44 2.82-1.68 1.24-0.24 8.77-1.33 16.75-2.43 7.97-1.1 18.55-3.17 23.5-4.6 4.95-1.44 10.76-3.83 12.91-5.32 2.15-1.5 4.73-4.3 5.72-6.22 1.01-1.97 2.25-7.66 2.81-13 0.55-5.23 1.46-21.88 2.02-37 0.55-15.13 1.29-51.8 1.63-81.5 0.37-32.87 0.16-69.65-0.54-94-0.64-22-1.7-48.62-2.35-59.16-0.66-10.54-1.43-19.39-1.7-19.67-0.28-0.28-6.58-1-14-1.59-7.42-0.6-23.63-1.08-36-1.08-12.38 0-26.55 0.5-31.5 1.11-4.95 0.61-12.38 1.96-16.5 3-4.13 1.05-10.42 3.33-14 5.07-4.14 2.01-8.9 5.55-13.11 9.74-5.1 5.09-7.64 8.73-11.2 16.08-2.53 5.23-4.84 9.84-5.14 10.25-0.3 0.41-2.57-0.49-5.04-2-2.48-1.51-4.73-3.31-5-4-0.28-0.69-0.07-2.26 0.46-3.5 0.54-1.24 5.88-15.53 11.88-31.75 6-16.23 11.62-31.19 12.49-33.25 1.43-3.4 1.93-3.75 5.37-3.73zm-376.71 8.24c9.62-0.03 18.62 0.25 20 0.63 2.44 0.68 2.5 0.92 2.5 19.61l-11 1.19c-6.05 0.66-13.7 1.7-17 2.33-3.3 0.62-8.25 2.13-11 3.37-2.75 1.23-6.69 3.89-8.75 5.92-2.06 2.03-4.65 5.49-5.75 7.69-1.1 2.2-2.88 7.26-3.97 11.25-1.08 3.99-2.42 10.85-2.98 15.25-0.56 4.4-1.52 21.73-2.13 38.5-0.64 17.44-0.91 54.7-0.65 87 0.38 47.27 0.74 58.21 2.18 67 0.96 5.77 2.82 14.21 4.14 18.75 1.33 4.54 4.05 11.51 6.05 15.5 2.01 3.99 4.82 9.05 6.25 11.25 1.44 2.2 5.32 6.7 8.63 10 3.32 3.3 8.72 7.78 12 9.95 3.29 2.17 8.9 5.26 12.48 6.87 3.57 1.61 10.55 3.96 15.5 5.22 4.95 1.26 14.62 2.82 21.5 3.46 7.26 0.69 17.32 0.9 24 0.52 6.32-0.36 16-1.35 21.5-2.19 5.5-0.84 13.6-2.67 18-4.05 4.4-1.38 11.15-4.08 15-6 3.85-1.91 10.15-5.87 14-8.79 3.85-2.91 8.85-7.48 11.1-10.14 2.26-2.67 5.83-7.55 7.93-10.85 2.11-3.3 5.06-8.7 6.55-12 1.49-3.3 3.89-9.6 5.32-14 1.44-4.4 3.51-12.27 4.6-17.5 1.1-5.23 2.65-14.68 3.45-21 0.8-6.32 1.97-20.27 2.6-31 0.72-12.31 0.97-38.49 0.68-71-0.37-40.95-0.81-53.85-2.14-63-0.92-6.32-2.3-14.2-3.06-17.5-0.76-3.3-2.4-8.7-3.65-12-1.25-3.3-3.65-7.49-5.33-9.32-1.68-1.83-5.3-4.14-8.05-5.14-2.75-1-8.26-2.32-12.25-2.93-3.99-0.61-11.19-1.09-16-1.07-5.9 0.03-9.16-0.37-10.01-1.25-0.88-0.9-1.14-3.97-0.87-10.29 0.35-8.08 0.58-8.98 2.26-8.81 1.03 0.1 21.22 0.46 44.87 0.8 23.65 0.33 54.02 0.22 67.5-0.24 13.47-0.46 24.86-0.6 25.3-0.3 0.44 0.3 0.44 4.59-0.8 18.49l-10.5 1.17c-5.78 0.64-12.53 1.7-15 2.36-2.48 0.66-6.41 2.28-8.75 3.61-2.34 1.33-5.33 4.11-6.66 6.17-1.32 2.06-2.9 6.11-3.5 9-0.63 3.02-1.51 28.29-2.07 59.5-0.54 29.84-1.23 60.32-1.55 67.75-0.31 7.43-1.02 20.7-1.56 29.5-0.55 8.8-1.66 21.85-2.47 29-0.81 7.15-2.38 18.18-3.49 24.5-1.11 6.32-3.35 16.56-4.98 22.75-1.63 6.19-4.36 14.74-6.07 19-1.7 4.26-4.47 10.45-6.14 13.75-1.67 3.3-4.85 8.7-7.07 12-2.22 3.3-7.45 9.53-11.61 13.84-4.17 4.32-11.18 10.26-15.58 13.2-4.4 2.95-12.28 7.21-17.5 9.48-5.23 2.26-14.45 5.43-20.5 7.02-6.05 1.6-15.28 3.58-20.5 4.4-5.23 0.82-16.48 2.01-25 2.66-8.86 0.67-22.35 0.92-31.5 0.57-8.8-0.33-21.4-1.31-28-2.17-6.6-0.87-16.73-2.73-22.5-4.14-5.78-1.4-14.33-4.02-19-5.82-4.68-1.79-10.98-4.51-14-6.04-3.03-1.53-8.65-4.9-12.5-7.49-3.85-2.59-9.93-7.59-13.51-11.11-3.58-3.52-7.85-8.09-9.5-10.15-1.64-2.06-4.69-6.56-6.76-10-2.08-3.44-5.18-9.63-6.88-13.75-1.71-4.13-4.13-11.55-5.38-16.5-1.25-4.95-2.8-14.18-3.45-20.5-0.98-9.68-0.76-21.94 1.41-77.5 2.22-56.54 2.44-69.3 1.57-89-0.56-12.65-1.69-28.74-2.51-35.75-0.82-7.01-2.22-16.01-3.11-20-0.9-3.99-2.47-8.94-3.5-11-1.04-2.06-3.34-4.52-5.13-5.47-2.59-1.37-6.6-1.79-19.75-2.09-9.08-0.2-16.82-0.66-17.21-1.03-0.4-0.36-0.96-4.82-1.79-19.16l18.25-0.54c10.04-0.29 40.52-0.89 67.75-1.34 27.22-0.44 57.37-0.83 67-0.86zm294.5 145.09c8.08 0.27 12.46 0.93 16.5 2.47 3.02 1.16 8.18 4.03 11.47 6.39 3.28 2.36 7.91 6.99 10.3 10.29 2.39 3.3 5.22 8.36 6.29 11.25 1.07 2.89 2.39 8.18 2.94 11.75 0.67 4.37 0.67 8.71-0.02 13.25-0.6 3.98-2.52 9.83-4.66 14.25-2.5 5.14-5.56 9.39-9.75 13.5-3.35 3.3-8.79 7.44-12.09 9.19-3.29 1.76-8.91 3.89-12.48 4.74-3.58 0.85-9.2 1.55-12.5 1.56-3.3 0.01-8.7-0.69-12-1.55-3.3-0.86-8.64-3-11.87-4.75-3.23-1.76-8.3-5.78-11.25-8.94-2.96-3.16-6.51-8-7.88-10.75-1.38-2.75-3.18-7.59-4.01-10.75-0.82-3.16-1.5-9.24-1.5-13.5q0.01-7.75 2.09-14c1.14-3.44 3.36-8.27 4.92-10.75 1.57-2.48 5.47-7.02 8.68-10.09 3.2-3.08 7.84-6.64 10.32-7.92 2.47-1.28 6.97-3.15 10-4.16 4.37-1.47 7.76-1.77 16.5-1.48zm-20 9.39c-2.2 1.15-5.44 3.59-7.2 5.42-1.75 1.84-4.43 6.04-5.95 9.34-2.19 4.77-2.84 7.85-3.15 15-0.26 6.11 0.14 11.25 1.26 16 0.91 3.85 3.06 9.93 4.78 13.5 1.73 3.57 4.29 7.8 5.7 9.4 1.41 1.59 3.68 3.97 5.06 5.28 1.37 1.31 4.97 3.6 8 5.08 3.5 1.72 7.68 2.84 11.5 3.1 3.75 0.25 7.88-0.19 11-1.17 3.09-0.97 6.73-3.22 9.55-5.88 2.5-2.37 5.86-7.01 7.48-10.31 2.48-5.08 2.99-7.46 3.29-15.5 0.25-6.37-0.16-11.72-1.23-16.25-0.87-3.71-2.95-9.56-4.61-13-1.65-3.44-5.14-8.66-7.75-11.61-3.13-3.54-6.76-6.31-10.73-8.18-3.3-1.56-8.25-3.05-11-3.31-2.75-0.26-6.58-0.15-8.5 0.26-1.93 0.41-5.3 1.68-7.5 2.83zm156-9.6c0.63-0.09 0.87 3.65 0.65 10.11-0.21 6.27-0.8 10.54-1.5 10.98-0.63 0.41-1.6 0.6-2.15 0.43-0.55-0.17-1.79-1.96-2.75-3.98-0.96-2.02-2.99-4.6-4.5-5.73-1.51-1.13-4.33-2.47-6.25-2.97-1.93-0.51-6.65-1.22-10.5-1.58-3.85-0.37-9.59-0.38-18.5 0.6l0.5 36.5h14.17c13.76 0 14.25-0.07 16.75-2.5 1.42-1.38 2.69-3.4 2.83-4.5 0.16-1.25 1-2 2.25-2 1.87 0 2.02 0.76 2.28 12 0.21 8.53-0.08 12.55-1 13.9-0.7 1.05-1.84 1.61-2.53 1.25-0.69-0.36-1.48-2-1.75-3.65-0.28-1.65-1.51-3.63-2.75-4.39-1.24-0.77-5.18-1.89-8.75-2.5-3.58-0.6-9.99-1.1-14.25-1.1-7.23-0.01-7.78 0.14-8.24 2.24-0.26 1.24-0.49 8.66-0.5 16.5 0 7.84 0.44 15.37 0.99 16.75 0.55 1.37 1.9 2.95 3 3.5 1.1 0.55 4.81 1.58 8.25 2.3 5 1.03 6.25 1.67 6.25 3.17 0 1.8-1.11 1.88-23 1.81-16.03-0.05-23-0.41-23-1.18 0-0.6 0.1-1.44 0.23-1.85 0.12-0.41 1.47-1.05 3-1.41 1.52-0.36 3.8-1.49 5.06-2.5 2.08-1.67 2.37-3.06 3.21-15.34 0.51-7.43 0.94-22.27 0.94-33 0.01-10.73-0.42-22.43-0.96-26-0.56-3.69-1.74-7.28-2.73-8.3-0.96-0.99-3.49-2.12-5.62-2.5-2.13-0.39-4.04-1.04-4.25-1.45-0.21-0.41 0.63-1.25 1.87-1.86 1.59-0.79 9.93-0.93 28.25-0.47 14.3 0.36 30.05 0.25 35-0.24 4.95-0.5 9.45-0.96 10-1.04z"/>
</svg>